      <svg xmlns="http://www.w3.org/2000/svg" xmlns:xlink="http://www.w3.org/1999/xlink" id="preview" width="298" height="298" viewBox="0 0 298 298" xunitlength="38" yunitlength="38" xmin="-2" xmax="4" ymin="-2" ymax="4" ox="96" oy="96"><defs><style type="text/css">@import url("http://cdnjs.cloudflare.com/ajax/libs/KaTeX/0.2.0/katex.min.css")</style></defs><path d="M 255.152 198.424 L 265.88 202 L 255.152 205.576 L 256.94 202 z" stroke-width="1" stroke="black" fill="black"></path><path d="M 92.424 42.848 L 96 32.120 L 99.576 42.848 L 96 41.06 z" stroke-width="1" stroke="black" fill="black"></path><path d="M11.06,202 256.94,202 M96,41.06 96,286.94 M96,207.75 96,196.25 M134,207.75 134,196.25 M172,207.75 172,196.25 M210,207.75 210,196.25 M248,207.75 248,196.25 M58,207.75 58,196.25 M20,207.75 20,196.25 M101.75,202 90.25,202 M101.75,240 90.25,240 M101.75,278 90.25,278 M101.75,164 90.25,164 M101.75,126 90.25,126 M101.75,88 90.25,88 M101.75,50 90.25,50" stroke-width="2" stroke="black" fill="none"></path><text id="null" x="134" y="227" font-style="" font-family="KaTeX_Main, serif" font-size="23" font-weight="normal" text-anchor="middle" fill="black" stroke-width="0px">1</text><text id="null" x="172" y="227" font-style="" font-family="KaTeX_Main, serif" font-size="23" font-weight="normal" text-anchor="middle" fill="black" stroke-width="0px">2</text><text id="null" x="210" y="227" font-style="" font-family="KaTeX_Main, serif" font-size="23" font-weight="normal" text-anchor="middle" fill="black" stroke-width="0px">3</text><text id="null" x="248" y="227" font-style="" font-family="KaTeX_Main, serif" font-size="23" font-weight="normal" text-anchor="middle" fill="black" stroke-width="0px">4</text><text id="null" x="58" y="227" font-style="" font-family="KaTeX_Main, serif" font-size="23" font-weight="normal" text-anchor="middle" fill="black" stroke-width="0px">-1</text><text id="null" x="20" y="227" font-style="" font-family="KaTeX_Main, serif" font-size="23" font-weight="normal" text-anchor="middle" fill="black" stroke-width="0px">-2</text><text id="null" x="86.333" y="171.666" font-style="" font-family="KaTeX_Main, serif" font-size="23" font-weight="normal" text-anchor="end" fill="black" stroke-width="0px">1</text><text id="null" x="86.333" y="133.666" font-style="" font-family="KaTeX_Main, serif" font-size="23" font-weight="normal" text-anchor="end" fill="black" stroke-width="0px">2</text><text id="null" x="86.333" y="95.666" font-style="" font-family="KaTeX_Main, serif" font-size="23" font-weight="normal" text-anchor="end" fill="black" stroke-width="0px">3</text><text id="null" x="86.333" y="57.666" font-style="" font-family="KaTeX_Main, serif" font-size="23" font-weight="normal" text-anchor="end" fill="black" stroke-width="0px">4</text><text id="null" x="86.333" y="247.666" font-style="" font-family="KaTeX_Main, serif" font-size="23" font-weight="normal" text-anchor="end" fill="black" stroke-width="0px">-1</text><text id="null" x="86.333" y="285.666" font-style="" font-family="KaTeX_Main, serif" font-size="23" font-weight="normal" text-anchor="end" fill="black" stroke-width="0px">-2</text><text id="null" x="96" y="22.453" font-style="italic" font-family="KaTeX_Main, serif" font-size="23" font-weight="normal" text-anchor="middle" fill="black" stroke-width="0px">y</text><text id="null" x="275.546" y="209.666" font-style="italic" font-family="KaTeX_Main, serif" font-size="23" font-weight="normal" text-anchor="start" fill="black" stroke-width="0px">x</text><path id="null" d="M20,183 20.759,182.620 21.519,182.240 22.279,181.860 23.039,181.480 23.799,181.100 24.559,180.720 25.319,180.340 26.079,179.960 26.839,179.580 27.599,179.200 28.359,178.820 29.119,178.440 29.879,178.060 30.639,177.680 31.399,177.300 32.159,176.920 32.919,176.540 33.679,176.160 34.439,175.780 35.199,175.400 35.959,175.020 36.719,174.640 37.479,174.260 38.239,173.880 38.999,173.500 39.759,173.120 40.519,172.740 41.279,172.360 42.039,171.980 42.799,171.600 43.559,171.220 44.319,170.840 45.079,170.460 45.839,170.080 46.599,169.700 47.359,169.320 48.119,168.940 48.879,168.560 49.639,168.180 50.399,167.800 51.159,167.420 51.919,167.040 52.679,166.660 53.439,166.280 54.199,165.900 54.959,165.520 55.719,165.140 56.479,164.760 57.239,164.380 57.999,164.000 58.759,163.620 59.519,163.240 60.279,162.860 61.039,162.480 61.799,162.100 62.559,161.720 63.319,161.340 64.079,160.960 64.839,160.580 65.599,160.200 66.359,159.820 67.119,159.440 67.879,159.060 68.639,158.680 69.399,158.300 70.159,157.920 70.919,157.540 71.679,157.160 72.439,156.780 73.199,156.400 73.959,156.020 74.719,155.640 75.479,155.260 76.239,154.880 76.999,154.500 77.759,154.120 78.519,153.740 79.279,153.360 80.039,152.980 80.799,152.600 81.559,152.220 82.319,151.840 83.079,151.460 83.839,151.080 84.599,150.700 85.359,150.320 86.119,149.940 86.879,149.560 87.639,149.180 88.399,148.800 89.159,148.420 89.919,148.040 90.679,147.660 91.439,147.280 92.199,146.900 92.959,146.520 93.719,146.140 94.479,145.760 95.239,145.380 95.999,145.000 96.759,144.620 97.519,144.240 98.279,143.860 99.039,143.480 99.799,143.100 100.559,142.720 101.319,142.340 102.079,141.960 102.839,141.580 103.599,141.200 104.359,140.820 105.119,140.440 105.879,140.060 106.639,139.680 107.399,139.300 108.159,138.920 108.919,138.540 109.679,138.160 110.439,137.780 111.199,137.400 111.959,137.020 112.719,136.640 113.479,136.260 114.239,135.880 114.999,135.500 115.759,135.120 116.519,134.740 117.279,134.360 118.039,133.980 118.799,133.600 119.559,133.220 120.319,132.840 121.079,132.460 121.839,132.080 122.599,131.700 123.359,131.320 124.119,130.940 124.879,130.560 125.639,130.180 126.399,129.800 127.159,129.420 127.919,129.040 128.679,128.660 129.439,128.280 130.199,127.900 130.959,127.520 131.719,127.140 132.479,126.760 133.239,126.380 133.999,126.000 134.759,125.620 135.519,125.240 136.279,124.860 137.039,124.480 137.799,124.100 138.559,123.720 139.319,123.340 140.079,122.960 140.839,122.580 141.599,122.200 142.359,121.820 143.119,121.440 143.879,121.060 144.639,120.680 145.399,120.300 146.159,119.920 146.919,119.540 147.679,119.160 148.439,118.780 149.199,118.400 149.959,118.020 150.719,117.640 151.479,117.260 152.239,116.880 152.999,116.500 153.759,116.120 154.519,115.740 155.279,115.360 156.039,114.980 156.799,114.600 157.559,114.220 158.319,113.840 159.079,113.460 159.839,113.080 160.599,112.700 161.359,112.320 162.119,111.940 162.879,111.560 163.639,111.180 164.399,110.800 165.159,110.420 165.919,110.040 166.679,109.660 167.439,109.280 168.199,108.900 168.959,108.520 169.719,108.140 170.479,107.760 171.239,107.380 171.999,107.000 172.759,106.620 173.519,106.240 174.279,105.860 175.039,105.480 175.799,105.100 176.559,104.720 177.319,104.340 178.079,103.960 178.839,103.580 179.599,103.200 180.359,102.820 181.119,102.440 181.879,102.060 182.639,101.680 183.399,101.300 184.159,100.920 184.919,100.540 185.679,100.160 186.439,99.780 187.199,99.400 187.959,99.020 188.719,98.640 189.479,98.260 190.239,97.880 190.999,97.500 191.759,97.120 192.519,96.740 193.279,96.360 194.039,95.980 194.799,95.600 195.559,95.220 196.319,94.840 197.079,94.460 197.839,94.080 198.599,93.700 199.359,93.320 200.119,92.940 200.879,92.560 201.639,92.180 202.399,91.800 203.159,91.420 203.919,91.040 204.679,90.660 205.439,90.280 206.199,89.900 206.959,89.520 207.719,89.140 208.479,88.760 209.239,88.380 209.999,88.000 210.759,87.620 211.519,87.240 212.279,86.860 213.039,86.480 213.799,86.100 214.559,85.720 215.319,85.340 216.079,84.960 216.839,84.580 217.599,84.200 218.359,83.820 219.119,83.440 219.879,83.060 220.639,82.680 221.399,82.300 222.159,81.920 222.919,81.540 223.679,81.160 224.439,80.780 225.199,80.400 225.959,80.020 226.719,79.640 227.479,79.260 228.239,78.880 228.999,78.500 229.759,78.120 230.519,77.740 231.279,77.360 232.039,76.980 232.799,76.600 233.559,76.220 234.319,75.840 235.079,75.460 235.839,75.080 236.599,74.700 237.359,74.320 238.119,73.940 238.879,73.560 239.639,73.180 240.399,72.800 241.159,72.420 241.919,72.040 242.679,71.660 243.439,71.280 244.199,70.900 244.959,70.520 245.719,70.140 246.479,69.760 247.239,69.380 247.999,69.000 " stroke-width="5" stroke="red" fill="none"></path><path d="M 23.198 185.398 L 12.003 186.998 L 20.000 179.001 L 20 183 z" stroke-width="1" stroke="red" fill="red"></path><path d="M 244.801 66.601 L 255.995 65.002 L 247.999 72.998 L 247.999 69.000 z" stroke-width="1" stroke="red" fill="red"></path><path id="null" d="M54.58,284.840 55.719,282.560 56.479,281.040 57.239,279.520 57.999,278.000 58.759,276.480 59.519,274.960 60.279,273.440 61.039,271.920 61.799,270.400 62.559,268.880 63.319,267.360 64.079,265.840 64.839,264.320 65.599,262.800 66.359,261.280 67.119,259.760 67.879,258.240 68.639,256.720 69.399,255.200 70.159,253.680 70.919,252.160 71.679,250.640 72.439,249.120 73.199,247.600 73.959,246.080 74.719,244.560 75.479,243.040 76.239,241.520 76.999,240.000 77.759,238.480 78.519,236.960 79.279,235.440 80.039,233.920 80.799,232.400 81.559,230.880 82.319,229.360 83.079,227.840 83.839,226.320 84.599,224.800 85.359,223.280 86.119,221.760 86.879,220.240 87.639,218.720 88.399,217.200 89.159,215.680 89.919,214.160 90.679,212.640 91.439,211.120 92.199,209.600 92.959,208.080 93.719,206.560 94.479,205.040 95.239,203.520 95.999,202.000 96.759,200.480 97.519,198.960 98.279,197.440 99.039,195.920 99.799,194.400 100.559,192.880 101.319,191.360 102.079,189.840 102.839,188.320 103.599,186.800 104.359,185.280 105.119,183.760 105.879,182.240 106.639,180.720 107.399,179.200 108.159,177.680 108.919,176.160 109.679,174.640 110.439,173.120 111.199,171.600 111.959,170.080 112.719,168.560 113.479,167.040 114.239,165.520 114.999,164.000 115.759,162.480 116.519,160.960 117.279,159.440 118.039,157.920 118.799,156.400 119.559,154.880 120.319,153.360 121.079,151.840 121.839,150.320 122.599,148.800 123.359,147.280 124.119,145.760 124.879,144.240 125.639,142.720 126.399,141.200 127.159,139.680 127.919,138.160 128.679,136.640 129.439,135.120 130.199,133.600 130.959,132.080 131.719,130.560 132.479,129.040 133.239,127.520 133.999,126.000 134.759,124.480 135.519,122.960 136.279,121.440 137.039,119.920 137.799,118.400 138.559,116.880 139.319,115.360 140.079,113.840 140.839,112.320 141.599,110.800 142.359,109.280 143.119,107.760 143.879,106.240 144.639,104.720 145.399,103.200 146.159,101.680 146.919,100.160 147.679,98.640 148.439,97.120 149.199,95.600 149.959,94.080 150.719,92.560 151.479,91.040 152.239,89.520 152.999,88.000 153.759,86.480 154.519,84.960 155.279,83.440 156.039,81.920 156.799,80.400 157.559,78.880 158.319,77.360 159.079,75.840 159.839,74.320 160.599,72.800 161.359,71.280 162.119,69.760 162.879,68.240 163.639,66.720 164.399,65.200 165.159,63.680 165.919,62.160 166.679,60.640 167.439,59.120 168.199,57.600 168.959,56.080 169.719,54.560 170.479,53.040 171.239,51.520 171.999,50.000 172.759,48.480 173.519,46.960 174.279,45.440 175.039,43.920 175.42,43.160 " stroke-width="5" stroke="blue" fill="none"></path><path d="M 58.578 284.84 L 50.581 292.836 L 52.181 281.641 L 54.58 284.840 z" stroke-width="1" stroke="blue" fill="blue"></path><path d="M 171.421 43.160 L 179.418 35.163 L 177.818 46.358 L 175.42 43.160 z" stroke-width="1" stroke="blue" fill="blue"></path></svg>