<svg xmlns="http://www.w3.org/2000/svg" xmlns:xlink="http://www.w3.org/1999/xlink" id="preview" width="302" height="400" viewBox="0 0 302 400" xunitlength="58" yunitlength="55" xmin="-1" xmax="3" ymin="-2" ymax="4" ox="78" oy="130"><defs><style type="text/css">@import url("http://cdnjs.cloudflare.com/ajax/libs/KaTeX/0.2.0/katex.min.css")</style></defs><path d=" M78,50 78,380 M136,50 136,380 M194,50 194,380 M252,50 252,380 M20,50 20,380 M20,270 252,270 M20,325 252,325 M20,380 252,380 M20,215 252,215 M20,160 252,160 M20,105 252,105 M20,50 252,50" stroke-width="1" stroke="grey" fill="none"></path><path d="M 259.248 266.376 L 270.12 270 L 259.248 273.624 L 261.06 270 z" stroke-width="1" stroke="black" fill="black"></path><path d="M 74.376 42.751 L 78 31.879 L 81.624 42.751 L 78 40.94 z" stroke-width="1" stroke="black" fill="black"></path><path d="M10.94,270 261.06,270 M78,40.94 78,389.06 M78,276.75 78,263.25 M136,276.75 136,263.25 M194,276.75 194,263.25 M252,276.75 252,263.25 M20,276.75 20,263.25 M84.75,270 71.25,270 M84.75,325 71.25,325 M84.75,380 71.25,380 M84.75,215 71.25,215 M84.75,160 71.25,160 M84.75,105 71.25,105 M84.75,50 71.25,50" stroke-width="2" stroke="black" fill="none"></path><text id="null" x="136" y="299" font-style="" font-family="KaTeX_Main, serif" font-size="27" font-weight="normal" text-anchor="middle" fill="black" stroke-width="0px">1</text><text id="null" x="194" y="299" font-style="" font-family="KaTeX_Main, serif" font-size="27" font-weight="normal" text-anchor="middle" fill="black" stroke-width="0px">2</text><text id="null" x="252" y="299" font-style="" font-family="KaTeX_Main, serif" font-size="27" font-weight="normal" text-anchor="middle" fill="black" stroke-width="0px">3</text><text id="null" x="20" y="299" font-style="" font-family="KaTeX_Main, serif" font-size="27" font-weight="normal" text-anchor="middle" fill="black" stroke-width="0px">-1</text><text id="null" x="67" y="224" font-style="" font-family="KaTeX_Main, serif" font-size="27" font-weight="normal" text-anchor="end" fill="black" stroke-width="0px">1</text><text id="null" x="67" y="169" font-style="" font-family="KaTeX_Main, serif" font-size="27" font-weight="normal" text-anchor="end" fill="black" stroke-width="0px">2</text><text id="null" x="67" y="114" font-style="" font-family="KaTeX_Main, serif" font-size="27" font-weight="normal" text-anchor="end" fill="black" stroke-width="0px">3</text><text id="null" x="67" y="59" font-style="" font-family="KaTeX_Main, serif" font-size="27" font-weight="normal" text-anchor="end" fill="black" stroke-width="0px">4</text><text id="null" x="67" y="334" font-style="" font-family="KaTeX_Main, serif" font-size="27" font-weight="normal" text-anchor="end" fill="black" stroke-width="0px">-1</text><text id="null" x="67" y="389" font-style="" font-family="KaTeX_Main, serif" font-size="27" font-weight="normal" text-anchor="end" fill="black" stroke-width="0px">-2</text><text id="null" x="78" y="20.879" font-style="italic" font-family="KaTeX_Main, serif" font-size="27" font-weight="normal" text-anchor="middle" fill="black" stroke-width="0px">y</text><text id="null" x="281.12" y="279" font-style="italic" font-family="KaTeX_Main, serif" font-size="27" font-weight="normal" text-anchor="start" fill="black" stroke-width="0px">x</text><path id="null" d="M78,105 78.193,105.366 78.386,105.733 78.579,106.099 78.773,106.466 78.966,106.833 79.159,107.199 79.353,107.566 79.546,107.933 79.739,108.299 79.933,108.666 80.126,109.033 80.319,109.399 80.513,109.766 80.706,110.133 80.899,110.499 81.093,110.866 81.286,111.233 81.479,111.599 81.673,111.966 81.866,112.333 82.059,112.699 82.253,113.066 82.446,113.433 82.639,113.799 82.833,114.166 83.026,114.533 83.219,114.899 83.413,115.266 83.606,115.633 83.799,115.999 83.993,116.366 84.186,116.733 84.379,117.099 84.573,117.466 84.766,117.833 84.959,118.199 85.153,118.566 85.346,118.933 85.539,119.299 85.733,119.666 85.926,120.033 86.119,120.399 86.313,120.766 86.506,121.133 86.699,121.499 86.893,121.866 87.086,122.233 87.279,122.599 87.473,122.966 87.666,123.333 87.859,123.699 88.053,124.066 88.246,124.433 88.439,124.799 88.633,125.166 88.826,125.533 89.019,125.899 89.213,126.266 89.406,126.633 89.599,126.999 89.793,127.366 89.986,127.733 90.179,128.099 90.373,128.466 90.566,128.833 90.759,129.199 90.953,129.566 91.146,129.933 91.339,130.299 91.533,130.666 91.726,131.033 91.919,131.399 92.113,131.766 92.306,132.133 92.499,132.499 92.693,132.866 92.886,133.233 93.079,133.599 93.273,133.966 93.466,134.333 93.659,134.699 93.853,135.066 94.046,135.433 94.239,135.799 94.433,136.166 94.626,136.533 94.819,136.899 95.013,137.266 95.206,137.633 95.399,137.999 95.593,138.366 95.786,138.733 95.979,139.099 96.173,139.466 96.366,139.833 96.559,140.199 96.753,140.566 96.946,140.933 97.139,141.299 97.333,141.666 97.526,142.033 97.719,142.399 97.913,142.766 98.106,143.133 98.299,143.499 98.493,143.866 98.686,144.233 98.879,144.599 99.073,144.966 99.266,145.333 99.459,145.699 99.653,146.066 99.846,146.433 100.039,146.799 100.233,147.166 100.426,147.533 100.619,147.899 100.813,148.266 101.006,148.633 101.199,148.999 101.393,149.366 101.586,149.733 101.779,150.099 101.973,150.466 102.166,150.833 102.359,151.199 102.553,151.566 102.746,151.933 102.939,152.299 103.133,152.666 103.326,153.033 103.519,153.399 103.713,153.766 103.906,154.133 104.099,154.499 104.293,154.866 104.486,155.233 104.679,155.599 104.873,155.966 105.066,156.333 105.259,156.699 105.453,157.066 105.646,157.433 105.839,157.799 106.033,158.166 106.226,158.533 106.419,158.899 106.613,159.266 106.806,159.633 106.999,159.999 107.193,160.366 107.386,160.733 107.579,161.099 107.773,161.466 107.966,161.833 108.159,162.199 108.353,162.566 108.546,162.933 108.739,163.299 108.933,163.666 109.126,164.033 109.319,164.399 109.513,164.766 109.706,165.133 109.899,165.499 110.093,165.866 110.286,166.233 110.479,166.599 110.673,166.966 110.866,167.333 111.059,167.699 111.253,168.066 111.446,168.433 111.639,168.799 111.833,169.166 112.026,169.533 112.219,169.899 112.413,170.266 112.606,170.633 112.799,170.999 112.993,171.366 113.186,171.733 113.379,172.099 113.573,172.466 113.766,172.833 113.959,173.199 114.153,173.566 114.346,173.933 114.539,174.299 114.733,174.666 114.926,175.033 115.119,175.399 115.313,175.766 115.506,176.133 115.699,176.499 115.893,176.866 116.086,177.233 116.279,177.599 116.473,177.966 116.666,178.333 116.859,178.699 117.053,179.066 117.246,179.433 117.439,179.799 117.633,180.166 117.826,180.533 118.019,180.899 118.213,181.266 118.406,181.633 118.599,181.999 118.793,182.366 118.986,182.733 119.179,183.099 119.373,183.466 119.566,183.833 119.759,184.199 119.953,184.566 120.146,184.933 120.339,185.299 120.533,185.666 120.726,186.033 120.919,186.399 121.113,186.766 121.306,187.133 121.499,187.499 121.693,187.866 121.886,188.233 122.079,188.599 122.273,188.966 122.466,189.333 122.659,189.699 122.853,190.066 123.046,190.433 123.239,190.799 123.433,191.166 123.626,191.533 123.819,191.899 124.013,192.266 124.206,192.633 124.399,192.999 124.593,193.366 124.786,193.733 124.979,194.099 125.173,194.466 125.366,194.833 125.559,195.199 125.753,195.566 125.946,195.933 126.139,196.299 126.333,196.666 126.526,197.033 126.719,197.399 126.913,197.766 127.106,198.133 127.299,198.499 127.493,198.866 127.686,199.233 127.879,199.599 128.073,199.966 128.266,200.333 128.459,200.699 128.653,201.066 128.846,201.433 129.039,201.799 129.233,202.166 129.426,202.533 129.619,202.899 129.813,203.266 130.006,203.633 130.199,203.999 130.393,204.366 130.586,204.733 130.779,205.099 130.973,205.466 131.166,205.833 131.359,206.199 131.553,206.566 131.746,206.933 131.939,207.299 132.133,207.666 132.326,208.033 132.519,208.399 132.713,208.766 132.906,209.133 133.099,209.499 133.293,209.866 133.486,210.233 133.679,210.599 133.873,210.966 134.066,211.333 134.259,211.699 134.453,212.066 134.646,212.433 134.839,212.799 135.033,213.166 135.226,213.533 135.419,213.899 135.613,214.266 135.806,214.633 135.999,214.999 " stroke-width="5" stroke-dasharray="8,3" stroke="red" fill="none"></path><circle id="undefined" cx="78" cy="105" r="3.7" stroke-width="5" stroke="red" fill="red"></circle><path id="null" d="M136,215 136.193,215.366 136.386,215.733 136.579,216.099 136.773,216.466 136.966,216.833 137.159,217.199 137.353,217.566 137.546,217.933 137.739,218.299 137.933,218.666 138.126,219.033 138.319,219.399 138.513,219.766 138.706,220.133 138.899,220.499 139.093,220.866 139.286,221.233 139.479,221.599 139.673,221.966 139.866,222.333 140.059,222.699 140.253,223.066 140.446,223.433 140.639,223.799 140.833,224.166 141.026,224.533 141.219,224.899 141.413,225.266 141.606,225.633 141.799,225.999 141.993,226.366 142.186,226.733 142.379,227.099 142.573,227.466 142.766,227.833 142.959,228.199 143.153,228.566 143.346,228.933 143.539,229.299 143.733,229.666 143.926,230.033 144.119,230.399 144.313,230.766 144.506,231.133 144.699,231.499 144.893,231.866 145.086,232.233 145.279,232.599 145.473,232.966 145.666,233.333 145.859,233.699 146.053,234.066 146.246,234.433 146.439,234.799 146.633,235.166 146.826,235.533 147.019,235.899 147.213,236.266 147.406,236.633 147.599,236.999 147.793,237.366 147.986,237.733 148.179,238.099 148.373,238.466 148.566,238.833 148.759,239.199 148.953,239.566 149.146,239.933 149.339,240.299 149.533,240.666 149.726,241.033 149.919,241.399 150.113,241.766 150.306,242.133 150.499,242.499 150.693,242.866 150.886,243.233 151.079,243.599 151.273,243.966 151.466,244.333 151.659,244.699 151.853,245.066 152.046,245.433 152.239,245.799 152.433,246.166 152.626,246.533 152.819,246.899 153.013,247.266 153.206,247.633 153.399,247.999 153.593,248.366 153.786,248.733 153.979,249.099 154.173,249.466 154.366,249.833 154.559,250.199 154.753,250.566 154.946,250.933 155.139,251.299 155.333,251.666 155.526,252.033 155.719,252.399 155.913,252.766 156.106,253.133 156.299,253.499 156.493,253.866 156.686,254.233 156.879,254.599 157.073,254.966 157.266,255.333 157.459,255.699 157.653,256.066 157.846,256.433 158.039,256.799 158.233,257.166 158.426,257.533 158.619,257.899 158.813,258.266 159.006,258.633 159.199,258.999 159.393,259.366 159.586,259.733 159.779,260.099 159.973,260.466 160.166,260.833 160.359,261.199 160.553,261.566 160.746,261.933 160.939,262.299 161.133,262.666 161.326,263.033 161.519,263.399 161.713,263.766 161.906,264.133 162.099,264.499 162.293,264.866 162.486,265.233 162.679,265.599 162.873,265.966 163.066,266.333 163.259,266.699 163.453,267.066 163.646,267.433 163.839,267.799 164.033,268.166 164.226,268.533 164.419,268.899 164.613,269.266 164.806,269.633 164.999,269.999 165.193,270.366 165.386,270.733 165.579,271.099 165.773,271.466 165.966,271.833 166.159,272.199 166.353,272.566 166.546,272.933 166.739,273.299 166.933,273.666 167.126,274.033 167.319,274.399 167.513,274.766 167.706,275.133 167.899,275.499 168.093,275.866 168.286,276.233 168.479,276.599 168.673,276.966 168.866,277.333 169.059,277.699 169.253,278.066 169.446,278.433 169.639,278.799 169.833,279.166 170.026,279.533 170.219,279.899 170.413,280.266 170.606,280.633 170.799,280.999 170.993,281.366 171.186,281.733 171.379,282.099 171.573,282.466 171.766,282.833 171.959,283.199 172.153,283.566 172.346,283.933 172.539,284.299 172.733,284.666 172.926,285.033 173.119,285.399 173.313,285.766 173.506,286.133 173.699,286.499 173.893,286.866 174.086,287.233 174.279,287.599 174.473,287.966 174.666,288.333 174.859,288.699 175.053,289.066 175.246,289.433 175.439,289.799 175.633,290.166 175.826,290.533 176.019,290.899 176.213,291.266 176.406,291.633 176.599,291.999 176.793,292.366 176.986,292.733 177.179,293.099 177.373,293.466 177.566,293.833 177.759,294.199 177.953,294.566 178.146,294.933 178.339,295.299 178.533,295.666 178.726,296.033 178.919,296.399 179.113,296.766 179.306,297.133 179.499,297.499 179.693,297.866 179.886,298.233 180.079,298.599 180.273,298.966 180.466,299.333 180.659,299.699 180.853,300.066 181.046,300.433 181.239,300.799 181.433,301.166 181.626,301.533 181.819,301.899 182.013,302.266 182.206,302.633 182.399,302.999 182.593,303.366 182.786,303.733 182.979,304.099 183.173,304.466 183.366,304.833 183.559,305.199 183.753,305.566 183.946,305.933 184.139,306.299 184.333,306.666 184.526,307.033 184.719,307.399 184.913,307.766 185.106,308.133 185.299,308.499 185.493,308.866 185.686,309.233 185.879,309.599 186.073,309.966 186.266,310.333 186.459,310.699 186.653,311.066 186.846,311.433 187.039,311.799 187.233,312.166 187.426,312.533 187.619,312.899 187.813,313.266 188.006,313.633 188.199,313.999 188.393,314.366 188.586,314.733 188.779,315.099 188.973,315.466 189.166,315.833 189.359,316.199 189.553,316.566 189.746,316.933 189.939,317.299 190.133,317.666 190.326,318.033 190.519,318.399 190.713,318.766 190.906,319.133 191.099,319.499 191.293,319.866 191.486,320.233 191.679,320.599 191.873,320.966 192.066,321.333 192.259,321.699 192.453,322.066 192.646,322.433 192.839,322.799 193.033,323.166 193.226,323.533 193.419,323.899 193.613,324.266 193.806,324.633 193.999,324.999 " stroke-width="5" stroke-dasharray="8,3" stroke="red" fill="none"></path><circle id="undefined" cx="136" cy="215" r="3.7" stroke-width="5" stroke="red" fill="red"></circle><path id="null" d="M78,270 78.386,270.183 78.773,270.366 79.159,270.549 79.546,270.733 79.933,270.916 80.319,271.099 80.706,271.283 81.093,271.466 81.479,271.649 81.866,271.833 82.253,272.016 82.639,272.199 83.026,272.383 83.413,272.566 83.799,272.749 84.186,272.933 84.573,273.116 84.959,273.299 85.346,273.483 85.733,273.666 86.119,273.849 86.506,274.033 86.893,274.216 87.279,274.399 87.666,274.583 88.053,274.766 88.439,274.949 88.826,275.133 89.213,275.316 89.599,275.499 89.986,275.683 90.373,275.866 90.759,276.049 91.146,276.233 91.533,276.416 91.919,276.599 92.306,276.783 92.693,276.966 93.079,277.149 93.466,277.333 93.853,277.516 94.239,277.699 94.626,277.883 95.013,278.066 95.399,278.249 95.786,278.433 96.173,278.616 96.559,278.799 96.946,278.983 97.333,279.166 97.719,279.349 98.106,279.533 98.493,279.716 98.879,279.899 99.266,280.083 99.653,280.266 100.039,280.449 100.426,280.633 100.813,280.816 101.199,280.999 101.586,281.183 101.973,281.366 102.359,281.549 102.746,281.733 103.133,281.916 103.519,282.099 103.906,282.283 104.293,282.466 104.679,282.649 105.066,282.833 105.453,283.016 105.839,283.199 106.226,283.383 106.613,283.566 106.999,283.749 107.386,283.933 107.773,284.116 108.159,284.299 108.546,284.483 108.933,284.666 109.319,284.849 109.706,285.033 110.093,285.216 110.479,285.399 110.866,285.583 111.253,285.766 111.639,285.949 112.026,286.133 112.413,286.316 112.799,286.499 113.186,286.683 113.573,286.866 113.959,287.049 114.346,287.233 114.733,287.416 115.119,287.599 115.506,287.783 115.893,287.966 116.279,288.149 116.666,288.333 117.053,288.516 117.439,288.699 117.826,288.883 118.213,289.066 118.599,289.249 118.986,289.433 119.373,289.616 119.759,289.799 120.146,289.983 120.533,290.166 120.919,290.349 121.306,290.533 121.693,290.716 122.079,290.899 122.466,291.083 122.853,291.266 123.239,291.449 123.626,291.633 124.013,291.816 124.399,291.999 124.786,292.183 125.173,292.366 125.559,292.549 125.946,292.733 126.333,292.916 126.719,293.099 127.106,293.283 127.493,293.466 127.879,293.649 128.266,293.833 128.653,294.016 129.039,294.199 129.426,294.383 129.813,294.566 130.199,294.749 130.586,294.933 130.973,295.116 131.359,295.299 131.746,295.483 132.133,295.666 132.519,295.849 132.906,296.033 133.293,296.216 133.679,296.399 134.066,296.583 134.453,296.766 134.839,296.949 135.226,297.133 135.613,297.316 135.999,297.499 136.386,297.683 136.773,297.866 137.159,298.049 137.546,298.233 137.933,298.416 138.319,298.599 138.706,298.783 139.093,298.966 139.479,299.149 139.866,299.333 140.253,299.516 140.639,299.699 141.026,299.883 141.413,300.066 141.799,300.249 142.186,300.433 142.573,300.616 142.959,300.799 143.346,300.983 143.733,301.166 144.119,301.349 144.506,301.533 144.893,301.716 145.279,301.899 145.666,302.083 146.053,302.266 146.439,302.449 146.826,302.633 147.213,302.816 147.599,302.999 147.986,303.183 148.373,303.366 148.759,303.549 149.146,303.733 149.533,303.916 149.919,304.099 150.306,304.283 150.693,304.466 151.079,304.649 151.466,304.833 151.853,305.016 152.239,305.199 152.626,305.383 153.013,305.566 153.399,305.749 153.786,305.933 154.173,306.116 154.559,306.299 154.946,306.483 155.333,306.666 155.719,306.849 156.106,307.033 156.493,307.216 156.879,307.399 157.266,307.583 157.653,307.766 158.039,307.949 158.426,308.133 158.813,308.316 159.199,308.499 159.586,308.683 159.973,308.866 160.359,309.049 160.746,309.233 161.133,309.416 161.519,309.599 161.906,309.783 162.293,309.966 162.679,310.149 163.066,310.333 163.453,310.516 163.839,310.699 164.226,310.883 164.613,311.066 164.999,311.249 165.386,311.433 165.773,311.616 166.159,311.799 166.546,311.983 166.933,312.166 167.319,312.349 167.706,312.533 168.093,312.716 168.479,312.899 168.866,313.083 169.253,313.266 169.639,313.449 170.026,313.633 170.413,313.816 170.799,313.999 171.186,314.183 171.573,314.366 171.959,314.549 172.346,314.733 172.733,314.916 173.119,315.099 173.506,315.283 173.893,315.466 174.279,315.649 174.666,315.833 175.053,316.016 175.439,316.199 175.826,316.383 176.213,316.566 176.599,316.749 176.986,316.933 177.373,317.116 177.759,317.299 178.146,317.483 178.533,317.666 178.919,317.849 179.306,318.033 179.693,318.216 180.079,318.399 180.466,318.583 180.853,318.766 181.239,318.949 181.626,319.133 182.013,319.316 182.399,319.499 182.786,319.683 183.173,319.866 183.559,320.049 183.946,320.233 184.333,320.416 184.719,320.599 185.106,320.783 185.493,320.966 185.879,321.149 186.266,321.333 186.653,321.516 187.039,321.699 187.426,321.883 187.813,322.066 188.199,322.249 188.586,322.433 188.973,322.616 189.359,322.799 189.746,322.983 190.133,323.166 190.519,323.349 190.906,323.533 191.293,323.716 191.679,323.899 192.066,324.083 192.453,324.266 192.839,324.449 193.226,324.633 193.613,324.816 193.999,324.999 " stroke-width="5" stroke-dasharray="8,3" stroke="blue" fill="none"></path><circle id="undefined" cx="193.999" cy="324.999" r="3.7" stroke-width="5" stroke="blue" fill="blue"></circle><circle id="undefined" cx="194" cy="325" r="3.7" stroke-width="5" stroke="blue" fill="blue"></circle><text id="null" x="205" y="314" font-style="italic" font-family="KaTeX_Main, serif" font-size="27" font-weight="normal" text-anchor="start" fill="blue" stroke-width="0px">xc</text><circle id="undefined" cx="136" cy="215" r="3.7" stroke-width="5" stroke="red" fill="red"></circle><text id="null" x="147" y="204" font-style="italic" font-family="KaTeX_Main, serif" font-size="27" font-weight="normal" text-anchor="start" fill="red" stroke-width="0px">yd</text><circle id="undefined" cx="78" cy="105" r="3.7" stroke-width="5" stroke="green" fill="green"></circle><text id="null" x="89" y="94" font-style="italic" font-family="KaTeX_Main, serif" font-size="27" font-weight="normal" text-anchor="start" fill="green" stroke-width="0px">b = (0, 3)</text></svg>